<svg id="Lager_1" data-name="Lager 1" xmlns="http://www.w3.org/2000/svg" viewBox="0 0 90.1 103.62"><path id="Stroke-37" d="M940.17,553.3h30.42V522.88H940.17Zm-28.59-40.5v50.57l43.79,25.27,31-17.88,12.81-7.41V512.8l-43.8-25.28Zm40.78,20.62-4.1,10.42m4.1-10.42,4.1,10.42m3.28-10.42v10.42M950,540.08h4.84m15.74-9.66H978m-7.37,7.67H978m-7.37,7.69H978M932.8,530.42h7.37m-7.37,7.67h7.37m-7.37,7.69h7.37m7.52-22.88v-7.37m7.67,7.37v-7.37m7.69,7.37v-7.37m-15.36,45.15v-7.37m7.67,7.37v-7.37m7.69,7.37v-7.37" transform="translate(-910.33 -486.27)" fill="none" stroke="#000" stroke-linecap="round" stroke-linejoin="round" stroke-width="2.5"/></svg>