<?xml version="1.0" encoding="utf-8"?>
<!-- Generator: Adobe Illustrator 25.4.1, SVG Export Plug-In . SVG Version: 6.00 Build 0)  -->
<svg version="1.1" xmlns="http://www.w3.org/2000/svg" xmlns:xlink="http://www.w3.org/1999/xlink" x="0px" y="0px" width="92px"
	 height="106px" viewBox="0 0 92 106" style="enable-background:new 0 0 92 106;" xml:space="preserve">
<style type="text/css">
	.st0{fill:none;stroke:#5792CD;stroke-width:2.5;stroke-linecap:round;stroke-linejoin:round;stroke-miterlimit:10;}
	.st1{fill:#5792CD;}
</style>
<g id="ram">
	<path class="st0" d="M2.18,27.7v50.6L46,103.6l30.98-17.89l12.84-7.41V27.7L46,2.4L2.18,27.7z"/>
</g>
<g id="art">
	<g>
		<path class="st0" d="M26.83,74.09V26.15c0-1.31,1.06-2.37,2.37-2.37h32.6c1.31,0,2.37,1.06,2.37,2.37v53.67
			c0,1.31-1.06,2.37-2.37,2.37H30.17"/>
		<rect x="31.55" y="29.9" class="st0" width="27.78" height="6.82"/>
		<g>
			<rect x="30.25" y="42.91" class="st1" width="4.87" height="4.87"/>
			<rect x="38.75" y="42.91" class="st1" width="4.87" height="4.87"/>
			<rect x="47.25" y="42.91" class="st1" width="4.87" height="4.87"/>
			<rect x="55.75" y="42.91" class="st1" width="4.87" height="4.87"/>
		</g>
		<g>
			<rect x="30.25" y="51.96" class="st1" width="4.87" height="4.87"/>
			<rect x="38.75" y="51.96" class="st1" width="4.87" height="4.87"/>
			<rect x="47.25" y="51.96" class="st1" width="4.87" height="4.87"/>
			<rect x="55.75" y="51.96" class="st1" width="4.87" height="4.87"/>
		</g>
		<g>
			<rect x="30.25" y="61" class="st1" width="4.87" height="4.87"/>
			<rect x="38.75" y="61" class="st1" width="4.87" height="4.87"/>
			<rect x="47.25" y="61" class="st1" width="4.87" height="4.87"/>
		</g>
		<g>
			<rect x="30.25" y="70.05" class="st1" width="4.87" height="4.87"/>
			<rect x="38.75" y="70.05" class="st1" width="4.87" height="4.87"/>
			<rect x="47.25" y="70.05" class="st1" width="4.87" height="4.87"/>
			<polygon class="st1" points="55.75,61 55.75,70.05 55.75,72.11 55.75,74.92 60.62,74.92 60.62,72.11 60.62,70.05 60.62,61 			"/>
		</g>
	</g>
</g>
<g id="Rubriker">
</g>
</svg>
