<?xml version="1.0" encoding="UTF-8" standalone="no"?>
<svg
   id="Lager_1"
   data-name="Lager 1"
   viewBox="0 0 90.110002 103.62996"
   version="1.1"
   sodipodi:docname="dac03b9184b28a2baa068cbe1227cdc8.svg"
   width="90.110001"
   height="103.62996"
   xmlns:inkscape="http://www.inkscape.org/namespaces/inkscape"
   xmlns:sodipodi="http://sodipodi.sourceforge.net/DTD/sodipodi-0.dtd"
   xmlns="http://www.w3.org/2000/svg"
   xmlns:svg="http://www.w3.org/2000/svg">
  <defs
     id="defs10" />
  <sodipodi:namedview
     id="namedview8"
     pagecolor="#ffffff"
     bordercolor="#666666"
     borderopacity="1.0"
     inkscape:pageshadow="2"
     inkscape:pageopacity="0.0"
     inkscape:pagecheckerboard="0" />
  <g
     id="art"
     transform="translate(0,-1.9319717e-5)">
    <path
       d="m 911.73,513.15 v 50.58 l 43.8,25.27 31,-17.88 12.81,-7.41 v -50.56 l -43.8,-25.28 z m 24.64,46.37 V 511.6 a 2.38,2.38 0 0 1 2.37,-2.36 h 32.59 a 2.38,2.38 0 0 1 2.37,2.36 v 53.65 a 2.39,2.39 0 0 1 -2.37,2.33 h -31.62 m 29.15,-52.23 h -27.77 v 6.82 h 27.77 z"
       transform="translate(-910.48,-486.62)"
       fill="none"
       stroke="#000000"
       stroke-linecap="round"
       stroke-linejoin="round"
       stroke-width="2.5"
       id="path2" />
    <path
       d="m 944.66,555.48 h -4.87 v 4.87 h 4.87 z m 8.5,0 h -4.87 v 4.87 h 4.87 z m 8.49,0 h -4.87 v 4.87 h 4.87 z m 3.63,-9 v 13.91 h 4.87 v -13.95 z m -20.62,0 h -4.87 v 4.87 h 4.87 z m 8.5,0 h -4.87 v 4.87 h 4.87 z m 8.49,0 h -4.87 v 4.87 h 4.87 z m -17,-9 h -4.87 v 4.87 h 4.87 z m 8.5,0 h -4.87 v 4.87 h 4.87 z m 8.49,0 h -4.87 v 4.87 h 4.87 z m 8.5,0 h -4.87 v 4.87 h 4.87 z m -25.49,-9 h -4.87 v 4.86 h 4.87 z m 8.5,0 h -4.87 v 4.86 h 4.87 z m 8.49,0 h -4.87 v 4.86 h 4.87 z m 8.5,0 h -4.87 v 4.86 h 4.87 z"
       transform="translate(-910.48,-486.62)"
       fill-rule="evenodd"
       id="path4" />
  </g>
</svg>
