<svg id="Lager_1" data-name="Lager 1" xmlns="http://www.w3.org/2000/svg" viewBox="0 0 90.1 103.7"><g id="Layer_1" data-name="Layer 1"><path d="M911.53,513.14v50.6l43.8,25.3,31-17.9,12.8-7.4v-50.6l-43.8-25.3Zm20.75,51.45H977a3.59,3.59,0,0,0,3.09-5.4l-17.8-29.75v-16.2H965a2.23,2.23,0,0,0,2.2-2.2v-1.1a2.23,2.23,0,0,0-2.2-2.2H944.53a2.23,2.23,0,0,0-2.2,2.2V511a2.22,2.22,0,0,0,2.2,2.2h2.75v16.2l-14.45,24.15m14.5-40.35h4.8m-14.2,41.6h34.2m-15.9-21.9a3.5,3.5,0,1,1-3.5,3.5A3.5,3.5,0,0,1,956.23,532.94Zm-7.7,9.3a3.5,3.5,0,1,1-3.5,3.5A3.5,3.5,0,0,1,948.53,542.24Zm9,4a2.11,2.11,0,0,1,1.8-1,2.2,2.2,0,0,1,0,4.4" transform="translate(-910.28 -486.59)" fill="none" stroke="#000" stroke-linecap="round" stroke-linejoin="round" stroke-width="2.5"/></g></svg>