<?xml version="1.0" encoding="UTF-8" standalone="no"?>
<!DOCTYPE svg PUBLIC "-//W3C//DTD SVG 1.1//EN" "http://www.w3.org/Graphics/SVG/1.1/DTD/svg11.dtd">
<svg width="100%" height="100%" viewBox="0 0 83 87" version="1.1" xmlns="http://www.w3.org/2000/svg" xmlns:xlink="http://www.w3.org/1999/xlink" xml:space="preserve" xmlns:serif="http://www.serif.com/" style="fill-rule:evenodd;clip-rule:evenodd;stroke-linecap:round;stroke-linejoin:round;stroke-miterlimit:10;">
    <path d="M39.372,25.318L39.372,17.127L34.088,17.127L34.088,17.16C33.807,16.182 33.44,15.248 32.975,14.37L36.714,10.525L31.085,4.734L27.347,8.58C26.493,8.102 25.586,7.724 24.635,7.435L24.667,7.435L24.667,2L16.705,2L16.705,7.435L16.737,7.435C15.786,7.724 14.879,8.102 14.025,8.58L10.287,4.734L4.658,10.525L8.396,14.37C7.931,15.248 7.564,16.182 7.283,17.16L7.283,17.127L2,17.127L2,25.318L7.283,25.318L7.283,25.284C7.564,26.263 7.931,27.196 8.396,28.074L4.658,31.92L10.287,37.71L14.025,33.865C14.879,34.343 15.786,34.721 16.737,35.009L16.705,35.009L16.705,40.444L24.667,40.444L24.667,35.009L24.635,35.009C25.586,34.721 26.493,34.343 27.347,33.865L31.085,37.71L36.714,31.92L32.975,28.074C33.44,27.196 33.807,26.263 34.088,25.284L34.088,25.318L39.372,25.318Z" style="fill:none;fill-rule:nonzero;stroke:#5a8fc8;stroke-width:2px;"/>
    <path d="M41.803,73.221L38.723,80.089L48.793,84.868L51.872,78C53.212,78.2 54.573,78.244 55.945,78.155L55.913,78.166L58.463,85.268L68.867,81.323L66.317,74.221L66.285,74.232C67.387,73.387 68.402,72.443 69.288,71.398L75.965,74.565L80.611,64.207L73.934,61.039C74.129,59.661 74.172,58.261 74.085,56.849L74.096,56.883L81,54.26L77.165,43.557L70.261,46.18L70.272,46.213C69.45,45.079 68.532,44.034 67.516,43.123L70.596,36.254L60.526,31.475L57.447,38.344C56.107,38.144 54.746,38.099 53.374,38.188L53.406,38.177L50.856,31.075L40.452,35.021L43.002,42.123L43.034,42.112C41.932,42.956 40.917,43.901 40.031,44.946L33.354,41.778L28.708,52.137L35.385,55.304C35.19,56.682 35.147,58.083 35.234,59.494L35.223,59.461L28.319,62.084L32.154,72.787" style="fill:none;fill-rule:nonzero;stroke:#5a8fc8;stroke-width:2px;"/>
    <g transform="matrix(1.39463,0,0,1.3536,37.6294,-23.7211)">
        <ellipse cx="12.192" cy="60.508" rx="6.382" ry="6.577" style="fill:none;stroke:#5792cd;stroke-width:1.46px;stroke-miterlimit:1.5;"/>
    </g>
    <g transform="matrix(0.830511,0,0,0.80757,10.5549,-27.6469)">
        <ellipse cx="12.192" cy="60.508" rx="6.382" ry="6.577" style="fill:none;stroke:#5792cd;stroke-width:2.44px;stroke-miterlimit:1.5;"/>
    </g>
</svg>
