<svg id="Lager_1" data-name="Lager 1" xmlns="http://www.w3.org/2000/svg" viewBox="0 0 90.1 103.63"><g id="art"><path d="M911.84,513.16v50.56L955.63,589l31-17.88,12.83-7.41V513.16l-43.81-25.28Zm37.72,28.13V514.91a6.1,6.1,0,1,1,12.19,0v29.21a2.44,2.44,0,0,0,.9,1.91,11.45,11.45,0,1,1-14.07,0,2.41,2.41,0,0,0,.93-1.9Zm11.07,13.76a5,5,0,1,1-5-5,5,5,0,0,1,5,5m-5-33v31.36m0-2.4a4.12,4.12,0,1,1-4.12,4.11A4.12,4.12,0,0,1,955.64,551Zm0,.2a3.79,3.79,0,1,1-3.79,3.78A3.78,3.78,0,0,1,955.64,551.18Zm0,.85a2.76,2.76,0,1,1-2.76,2.76A2.77,2.77,0,0,1,955.64,552Zm0,1.25a1.7,1.7,0,1,1-1.7,1.7A1.7,1.7,0,0,1,955.64,553.28Zm0,1.14a.5.5,0,0,1,.5.5.5.5,0,0,1-.5.51.51.51,0,0,1-.51-.51A.5.5,0,0,1,955.64,554.42Zm0,.17a.38.38,0,1,1-.38.38A.38.38,0,0,1,955.64,554.59Zm0-.12a.49.49,0,1,1-.49.49A.49.49,0,0,1,955.64,554.47Zm0,.28a.21.21,0,0,1,.2.21.2.2,0,0,1-.2.2.21.21,0,0,1-.21-.2A.22.22,0,0,1,955.64,554.75Z" transform="translate(-910.59 -486.63)" fill="none" stroke="#000" stroke-linecap="round" stroke-linejoin="round" stroke-width="2.5"/></g></svg>