<?xml version="1.0" encoding="UTF-8" standalone="no"?>
<!DOCTYPE svg PUBLIC "-//W3C//DTD SVG 1.1//EN" "http://www.w3.org/Graphics/SVG/1.1/DTD/svg11.dtd">
<svg width="100%" height="100%" viewBox="0 0 92 106" version="1.1" xmlns="http://www.w3.org/2000/svg" xmlns:xlink="http://www.w3.org/1999/xlink" xml:space="preserve" xmlns:serif="http://www.serif.com/" style="fill-rule:evenodd;clip-rule:evenodd;stroke-linecap:round;stroke-linejoin:round;stroke-miterlimit:10;">
    <path d="M2.18,28.49L2.18,79.09L46,104.39L76.98,86.5L89.82,79.09L89.82,28.49L46,3.19L2.18,28.49Z" style="fill:none;fill-rule:nonzero;stroke:#5792cd;stroke-width:2.5px;"/>
    <g id="art">
        <path id="Stroke-3" d="M39.9,59.48L39.9,30.24C39.9,26.88 42.65,24.14 46,24.14C49.36,24.14 52.1,26.89 52.1,30.24L52.1,59.47C52.1,60.22 52.45,60.92 53.04,61.38C56.1,63.76 57.91,67.67 57.36,71.96C56.69,77.1 52.49,81.21 47.34,81.8C40.42,82.58 34.55,77.19 34.55,70.42C34.55,66.74 36.28,63.47 38.97,61.38C39.56,60.92 39.9,60.22 39.9,59.48Z" style="fill:none;fill-rule:nonzero;stroke:#5792cd;stroke-width:2.5px;"/>
        <path id="Fill-5" d="M51.02,70.41C51.02,73.18 48.77,75.43 46,75.43C43.23,75.43 40.98,73.18 40.98,70.41C40.98,67.64 43.23,65.39 46,65.39C48.77,65.39 51.02,67.64 51.02,70.41" style="fill:#5792cd;"/>
        <g transform="matrix(1,0,0,1,29.0133,10.3814)">
            <circle cx="17.157" cy="60.199" r="5.191" style="fill:#5792cd;"/>
        </g>
        <path id="Stroke-7" d="M46,37.36L46,68.74" style="fill:none;fill-rule:nonzero;stroke:#5792cd;stroke-width:2.5px;"/>
    </g>
</svg>
