<?xml version="1.0" encoding="UTF-8" standalone="no"?>
<!DOCTYPE svg PUBLIC "-//W3C//DTD SVG 1.1//EN" "http://www.w3.org/Graphics/SVG/1.1/DTD/svg11.dtd">
<svg width="100%" height="100%" viewBox="0 0 92 106" version="1.1" xmlns="http://www.w3.org/2000/svg" xmlns:xlink="http://www.w3.org/1999/xlink" xml:space="preserve" xmlns:serif="http://www.serif.com/" style="fill-rule:evenodd;clip-rule:evenodd;stroke-linecap:round;stroke-linejoin:round;">
    <path d="M2.1,27.6L2.1,78.2L45.9,103.5L76.9,85.6L89.7,78.2L89.7,27.6L45.9,2.3L2.1,27.6Z" style="fill:none;fill-rule:nonzero;stroke:#5792cd;stroke-width:2.5px;"/>
    <g id="art">
        <path id="Fill-25" d="M35.2,62.5L35.6,62.1C41.25,56.537 50.45,56.537 56.1,62.1L56.5,62.5" style="fill:none;fill-rule:nonzero;stroke:#5792cd;stroke-width:2.5px;"/>
        <path id="Fill-27" d="M26.9,54.1L27.3,53.7C37.536,43.568 54.264,43.568 64.5,53.7L64.9,54.1" style="fill:none;fill-rule:nonzero;stroke:#5792cd;stroke-width:2.5px;"/>
        <path id="Fill-29" d="M18.5,45.8L18.9,45.4C33.716,30.597 58.084,30.597 72.9,45.4L73.3,45.8" style="fill:none;fill-rule:nonzero;stroke:#5792cd;stroke-width:2.5px;"/>
        <g transform="matrix(0.92273,0,0,0.92273,24.5005,10.3167)">
            <circle cx="22.866" cy="65.115" r="2.554" style="fill:#5792cd;"/>
        </g>
    </g>
</svg>
