<svg id="Lager_1" data-name="Lager 1" xmlns="http://www.w3.org/2000/svg" viewBox="0 0 90.1 103.7"><g id="ram"><path d="M911.53,513.14v50.6l43.8,25.3,31-17.9,12.8-7.4v-50.6l-43.8-25.3Z" transform="translate(-910.28 -486.59)" fill="none" stroke="#000" stroke-linecap="round" stroke-linejoin="round" stroke-width="2.5"/></g><g id="Layer_1" data-name="Layer 1"><path d="M958.33,559.44h-28.2a3,3,0,0,1-3-3v-37.7a3,3,0,0,1,3-3h48.7a3,3,0,0,1,3,3V536" transform="translate(-910.28 -486.59)" fill="none" stroke="#000" stroke-linecap="round" stroke-linejoin="round" stroke-width="2.5"/><path d="M927.13,526.84h54.7" transform="translate(-910.28 -486.59)" fill="none" stroke="#000" stroke-linecap="round" stroke-linejoin="round" stroke-width="2.5"/><path d="M932.63,519.74a1.5,1.5,0,1,0,1.5,1.5,1.5,1.5,0,0,0-1.5-1.5Z" transform="translate(-910.28 -486.59)"/><path d="M938.13,519.74a1.5,1.5,0,1,0,1.5,1.5,1.5,1.5,0,0,0-1.5-1.5Z" transform="translate(-910.28 -486.59)"/><path d="M943.53,519.74a1.5,1.5,0,1,0,1.5,1.5,1.5,1.5,0,0,0-1.5-1.5Z" transform="translate(-910.28 -486.59)"/><path d="M975.63,553.14a11.62,11.62,0,0,1-8.1,3.4,11.18,11.18,0,0,1-8.1-3.4,11.46,11.46,0,1,1,16.21,0Z" transform="translate(-910.28 -486.59)" fill="none" stroke="#000" stroke-linecap="round" stroke-linejoin="round" stroke-width="2.5"/><path d="M975.63,553.14l7.9,8" transform="translate(-910.28 -486.59)" fill="none" stroke="#000" stroke-linecap="round" stroke-linejoin="round" stroke-width="2.5"/></g></svg>