<svg id="Lager_1" data-name="Lager 1" xmlns="http://www.w3.org/2000/svg" viewBox="0 0 90.1 103.7"><g id="ram"><path d="M1.25,26.55v50.6l43.8,25.3,31-17.9,12.8-7.4V26.55L45.05,1.25Z" transform="translate(0 0)" fill="none" stroke="#000" stroke-linecap="round" stroke-linejoin="round" stroke-width="2.5"/></g><g id="Layer_1" data-name="Layer 1"><polyline points="38.25 54.05 38.25 65.25 24.15 79.35" fill="none" stroke="#000" stroke-linecap="round" stroke-linejoin="round" stroke-width="2.5" stroke-dasharray="3 7"/><polyline points="48.15 24.45 48.15 36.55 38.25 36.55 38.25 54.05" fill="none" stroke="#000" stroke-linecap="round" stroke-linejoin="round" stroke-width="2.5" stroke-dasharray="3 7"/><line x1="38.25" y1="54.05" x2="71.35" y2="54.05" fill="none" stroke="#000" stroke-linecap="round" stroke-linejoin="round" stroke-width="2.5" stroke-dasharray="3 7"/><path d="M58.05,82.55c5.6-6.2,7.2-10.4,7.5-14,.3-3.8-1.8-8.5-7.5-8.5-6,0-8,4.7-7.5,8.5a21.55,21.55,0,0,0,3.7,9.3" transform="translate(0 0)" fill="none" stroke="#000" stroke-linecap="round" stroke-linejoin="round" stroke-width="2.5"/><circle cx="58.05" cy="68.05" r="2.8" fill="none" stroke="#000" stroke-linecap="round" stroke-linejoin="round" stroke-width="2.5"/><path d="M65,43.85c5.6-6.2,7.2-10.4,7.5-14,.3-3.8-1.8-8.5-7.5-8.5-6,0-8,4.7-7.5,8.5a21.55,21.55,0,0,0,3.7,9.3" transform="translate(0 0)" fill="none" stroke="#000" stroke-linecap="round" stroke-linejoin="round" stroke-width="2.5"/><circle cx="64.85" cy="29.35" r="2.8" fill="none" stroke="#000" stroke-linecap="round" stroke-linejoin="round" stroke-width="2.5"/><path d="M19.85,59.05c5.6-6.2,7.2-10.4,7.5-14,.3-3.8-1.8-8.5-7.5-8.5-6,0-8,4.7-7.5,8.5a21.55,21.55,0,0,0,3.7,9.3" transform="translate(0 0)" fill="none" stroke="#000" stroke-linecap="round" stroke-linejoin="round" stroke-width="2.5"/><circle cx="19.85" cy="44.55" r="2.8" fill="none" stroke="#000" stroke-linecap="round" stroke-linejoin="round" stroke-width="2.5"/></g></svg>