<?xml version="1.0" encoding="UTF-8"?>
<svg width="47px" height="47px" viewBox="0 0 47 47" version="1.1" xmlns="http://www.w3.org/2000/svg" xmlns:xlink="http://www.w3.org/1999/xlink">
    <!-- Generator: Sketch 50.2 (55047) - http://www.bohemiancoding.com/sketch -->
    <title>Filter - eld - sidoljus</title>
    <desc>Created with Sketch.</desc>
    <defs>
        <polygon id="path-1" points="0 0 46.4140667 0 46.4140667 46.4146307 0 46.4146307"></polygon>
        <polygon id="path-3" points="0 0 47 0 47 33 0 33"></polygon>
    </defs>
    <g id="Filter---eld---sidoljus" stroke="none" stroke-width="1" fill="none" fill-rule="evenodd">
        <g id="Group-15">
            <g id="Group-4">
                <mask id="mask-2" fill="white">
                    <use xlink:href="#path-1"></use>
                </mask>
                <g id="Clip-2"></g>
                <path d="M46.4140667,23.2073467 C46.4140667,10.39076 36.0233067,0 23.20672,0 C10.3901333,0 0,10.39076 0,23.2073467 C0,36.0239333 10.3901333,46.4146933 23.20672,46.4146933 C36.0233067,46.4146933 46.4140667,36.0239333 46.4140667,23.2073467 M35.3903733,23.2073467 C35.3903733,29.93712 29.9364933,35.3922533 23.20672,35.3922533 C16.4782,35.3922533 11.0230667,29.93712 11.0230667,23.2073467 C11.0230667,16.4775733 16.4782,11.02244 23.20672,11.02244 C29.9364933,11.02244 35.3903733,16.4775733 35.3903733,23.2073467" id="Fill-1" fill="#F5F5F5" mask="url(#mask-2)"></path>
                <path d="M23.2549733,30.2178667 C27.1002,30.2178667 30.2166133,27.1002 30.2166133,23.25372 C30.2166133,19.4084933 27.1002,16.2933333 23.2549733,16.2933333 C19.4097467,16.2933333 16.2933333,19.4084933 16.2933333,23.25372 C16.2933333,27.1002 19.4097467,30.2178667 23.2549733,30.2178667" id="Fill-6" fill="#665952" mask="url(#mask-2)"></path>
            </g>
        </g>
        <g id="Group-5" transform="translate(0.000000, 14.000000)">
            <mask id="mask-4" fill="white">
                <use xlink:href="#path-3"></use>
            </mask>
            <g id="Clip-4"></g>
            <path d="M2.22035752,0 C0.810979397,2.97932331 0,6.29072682 0,9.79824561 C0,22.6115288 10.5217914,33 23.5,33 C36.4782086,33 47,22.6115288 47,9.79824561 C47,6.29072682 46.1902897,2.97932331 44.7796425,0 L34.6519186,4.66290727 C35.3924608,6.22681704 35.8372938,7.95614035 35.8372938,9.79824561 C35.8372938,16.5256892 30.3133692,21.9799499 23.5,21.9799499 C16.6866308,21.9799499 11.1627062,16.5256892 11.1627062,9.79824561 C11.1627062,7.95614035 11.6075392,6.22681704 12.3480814,4.66290727 L2.22035752,0 Z" id="Fill-3" fill="#ED7219" mask="url(#mask-4)"></path>
        </g>
    </g>
</svg>