<svg id="Lager_1" data-name="Lager 1" xmlns="http://www.w3.org/2000/svg" viewBox="0 0 90.1 103.7"><g id="ram"><path d="M1.25,26.55v50.6l43.8,25.3,31-17.9,12.8-7.4V26.55L45.05,1.25Z" transform="translate(0 0)" fill="none" stroke="#000" stroke-linecap="round" stroke-linejoin="round" stroke-width="2.5"/></g><g id="Layer_1" data-name="Layer 1"><path d="M45.05,61.15h0a7.48,7.48,0,0,1-4.5-1.4,7.65,7.65,0,0,1-3.3-6l-.3-6.4a7.87,7.87,0,0,1,7.43-8.29h1.07a7.82,7.82,0,0,1,7.82,7.8c0,.17,0,.34,0,.5l-.3,6.4A8,8,0,0,1,45.05,61.15Z" transform="translate(0 0)" fill="none" stroke="#000" stroke-linecap="round" stroke-linejoin="round" stroke-width="2.5"/><path d="M27,74.55v-2.3a4.84,4.84,0,0,1,3.6-4.7c3-.7,9.1-1.7,11.3-7" transform="translate(0 0)" fill="none" stroke="#000" stroke-linecap="round" stroke-linejoin="round" stroke-width="2.5"/><path d="M63.15,74.55v-2.3a4.84,4.84,0,0,0-3.6-4.7c-3-.7-9.1-1.7-11.3-7" transform="translate(0 0)" fill="none" stroke="#000" stroke-linecap="round" stroke-linejoin="round" stroke-width="2.5"/><path d="M25.05,47h0a6.53,6.53,0,0,1-3.9-1.3,7.21,7.21,0,0,1-2.9-5.2L18,35a6.75,6.75,0,0,1,6.39-7.09h1a6.81,6.81,0,0,1,6.81,6.81c0,.1,0,.19,0,.29l-.3,5.5A6.81,6.81,0,0,1,25.05,47Z" transform="translate(0 0)" fill="none" stroke="#000" stroke-linecap="round" stroke-linejoin="round" stroke-width="2.5"/><path d="M9.45,58.55v-2a4.29,4.29,0,0,1,3.1-4.1c2.6-.6,7.9-1.5,9.8-6.1" transform="translate(0 0)" fill="none" stroke="#000" stroke-linecap="round" stroke-linejoin="round" stroke-width="2.5"/><path d="M37.15,52.45c-2.7-.6-7.6-1.6-9.4-6" transform="translate(0 0)" fill="none" stroke="#000" stroke-linecap="round" stroke-linejoin="round" stroke-width="2.5"/><path d="M65.05,47h0a6.53,6.53,0,0,0,3.9-1.3,7.21,7.21,0,0,0,2.9-5.2l.3-5.5a6.75,6.75,0,0,0-6.39-7.09h-1a6.81,6.81,0,0,0-6.81,6.81c0,.1,0,.19,0,.29l.3,5.5A6.81,6.81,0,0,0,65.05,47Z" transform="translate(0 0)" fill="none" stroke="#000" stroke-linecap="round" stroke-linejoin="round" stroke-width="2.5"/><path d="M80.65,58.55v-2a4.29,4.29,0,0,0-3.1-4.1c-2.6-.6-7.9-1.5-9.8-6.1" transform="translate(0 0)" fill="none" stroke="#000" stroke-linecap="round" stroke-linejoin="round" stroke-width="2.5"/><path d="M53,52.45c2.7-.6,7.6-1.6,9.4-6" transform="translate(0 0)" fill="none" stroke="#000" stroke-linecap="round" stroke-linejoin="round" stroke-width="2.5"/></g></svg>