<?xml version="1.0" encoding="UTF-8" standalone="no"?>
<!DOCTYPE svg PUBLIC "-//W3C//DTD SVG 1.1//EN" "http://www.w3.org/Graphics/SVG/1.1/DTD/svg11.dtd">
<svg width="100%" height="100%" viewBox="0 0 92 106" version="1.1" xmlns="http://www.w3.org/2000/svg" xmlns:xlink="http://www.w3.org/1999/xlink" xml:space="preserve" xmlns:serif="http://www.serif.com/" style="fill-rule:evenodd;clip-rule:evenodd;stroke-linecap:round;stroke-linejoin:round;stroke-miterlimit:10;">
    <g id="ram">
    </g>
    <g id="art">
        <path d="M2.18,27.7L2.18,78.3L46,103.6L76.98,85.71L89.82,78.3L89.82,27.7L46,2.4L2.18,27.7ZM18.68,57.71L29.05,57.71L29.05,78.34L18.68,78.34M29.05,60.34L37.74,60.34C40.5,60.34 43.72,63.05 43.72,63.05C46,65.33 49.09,65.35 49.09,65.35L55.05,65.35C56.47,65.35 57.61,66.5 57.61,67.91C57.61,69.32 56.46,70.47 55.05,70.47L40.86,70.47M29.05,74.55L44.33,79.5C47.25,80.45 50.43,80.22 53.18,78.87L75.32,68.03C72.27,64.01 66.64,65.74 65.65,66.33C64.66,66.92 56.86,69.72 56.86,69.72M35.17,32.28C41.46,38.04 48.22,49.37 51,58.05M48.09,41.62C55.25,34.99 44.91,29.83 42.46,28.77C40.01,27.71 32.65,26.12 30.87,23.93C25.04,40.16 32.99,46.66 36.24,48.05C39.49,49.44 43.53,47.45 44.52,44.27M53.65,46.23C52.71,42.64 58.13,41.04 59.55,40.7C61.2,40.31 65.96,40.12 67.32,38.95C69.18,49.72 63.51,52.91 61.33,53.42C59.15,53.93 56.85,52.25 56.57,50.16M63.71,43.69C59.15,46.6 53.69,52.93 51,58.05" style="fill:none;fill-rule:nonzero;stroke:rgb(111,179,122);stroke-width:2.5px;"/>
    </g>
</svg>
