<?xml version="1.0" encoding="UTF-8"?>
<svg width="15px" height="23px" viewBox="0 0 15 23" version="1.1" xmlns="http://www.w3.org/2000/svg" xmlns:xlink="http://www.w3.org/1999/xlink">
    <!-- Generator: Sketch 50.2 (55047) - http://www.bohemiancoding.com/sketch -->
    <title>Filter - effekt</title>
    <desc>Created with Sketch.</desc>
    <defs>
        <polygon id="path-1" points="0 0 15 0 15 23 0 23"></polygon>
    </defs>
    <g id="Filter---effekt" stroke="none" stroke-width="1" fill="none" fill-rule="evenodd">
        <g id="eldeffekt">
            <g id="Page-1">
                <mask id="mask-2" fill="white">
                    <use xlink:href="#path-1"></use>
                </mask>
                <g id="Clip-2"></g>
                <path d="M12.4210269,8.20472159 C12.5111812,10.7981469 10.6168835,11.5316038 10.6168835,11.5316038 C10.6168835,11.5316038 10.9091079,9.6255528 10.9091079,8.14832757 C10.9091079,2.33487669 6.03894045,0 6.03894045,0 C6.03894045,0 6.52599139,0.917391396 6.52599139,1.93960145 C6.52599139,5.56113783 0,8.67254253 0,14.3430008 C0,18.0730668 3.72977745,21.3764058 5.92885892,23 C4.77161942,21.9069172 3.39860022,20.2171954 3.39860022,18.3524818 C3.39860022,16.8674697 4.05709981,15.6697812 4.80898683,14.6123781 C4.75965066,16.1925969 5.79552379,16.6394602 5.79552379,16.6394602 C5.79552379,16.6394602 5.63570194,15.4780902 5.63570194,14.5780367 C5.63570194,11.0357987 8.29898488,9.61314247 8.29898488,9.61314247 C8.29898488,9.61314247 8.03265659,10.1720942 8.03265659,10.7949835 C8.03265659,13.0016201 11.6013998,14.8974203 11.6013998,18.3524818 C11.6013998,20.2171346 10.228536,21.9067347 9.0713587,22.9998175 C11.2705023,21.3761625 15,18.0728843 15,14.3430008 C15,11.9057389 13.7958492,9.94016087 12.4210269,8.20472159" id="Fill-1" fill="#525253" mask="url(#mask-2)"></path>
            </g>
        </g>
    </g>
</svg>