<svg id="Lager_1" data-name="Lager 1" xmlns="http://www.w3.org/2000/svg" viewBox="0 0 90.1 103.65"><g id="art"><path d="M1.25,26.56V77.14l43.8,25.29L76,84.55l12.81-7.41V26.56L45.05,1.27ZM34.4,63.84A15.46,15.46,0,0,1,33.92,60c0-9.73,9.26-17.61,20.69-17.61S75.3,50.28,75.3,60,66,77.58,54.61,77.58a24,24,0,0,1-7.8-1.29m13.35-43,6.27-9.54-6.27,1.84L54.6,20.89,49,25.61l-6.27-1.84L49,33.31m-1.81,4.76H62.49m-47,20.85a9.77,9.77,0,0,1-.32-2.46c0-6.22,5.93-11.26,13.24-11.26a15.14,15.14,0,0,1,6.39,1.4M32,36.07,36,30l-4,1.17-3.56-3-3.55,3-4-1.17,4,6.1m-1.16,4.69h9.76M19.86,77.9h6.79m-6.79-4.39h6.79m-6.79-4.38h6.79m-6.79-4.38h6.79M31.5,77.9h6.78M31.5,73.51h6.78M31.5,69.13h6.78" transform="translate(0 -0.02)" fill="none" stroke="#000" stroke-linecap="round" stroke-linejoin="round" stroke-width="2.5"/></g></svg>