<?xml version="1.0" encoding="utf-8"?>
<!-- Generator: Adobe Illustrator 25.4.1, SVG Export Plug-In . SVG Version: 6.00 Build 0)  -->
<svg version="1.1" xmlns="http://www.w3.org/2000/svg" xmlns:xlink="http://www.w3.org/1999/xlink" x="0px" y="0px" width="92px"
	 height="106px" viewBox="0 0 92 106" style="enable-background:new 0 0 92 106;" xml:space="preserve">
<style type="text/css">
	.st0{fill:none;stroke:#5792CD;stroke-width:2.5;stroke-linecap:round;stroke-linejoin:round;stroke-miterlimit:10;}
</style>
<g id="ram">
	<path class="st0" d="M2.18,27.7v50.6L46,103.6l30.98-17.89l12.84-7.41V27.7L46,2.4L2.18,27.7z"/>
</g>
<g id="art">
	<g>
		<g>
			<path class="st0" d="M35.35,64.97c-0.32-1.24-0.49-2.52-0.49-3.84c0-9.73,9.27-17.61,20.7-17.61s20.7,7.88,20.7,17.61
				s-9.27,17.61-20.7,17.61c-2.76,0-5.39-0.46-7.8-1.29"/>
			<polyline class="st0" points="61.12,34.45 67.39,24.91 61.12,26.75 55.55,22.03 49.99,26.75 43.72,24.91 49.99,34.45 			"/>
			<line class="st0" x1="48.18" y1="39.21" x2="63.45" y2="39.21"/>
		</g>
		<g>
			<path class="st0" d="M16.44,60.07c-0.21-0.79-0.32-1.61-0.32-2.46c0-6.22,5.93-11.26,13.24-11.26c2.32,0,4.5,0.51,6.4,1.4"/>
			<polyline class="st0" points="32.92,37.21 36.93,31.11 32.92,32.28 29.36,29.26 25.81,32.28 21.79,31.11 25.81,37.21 			"/>
			<line class="st0" x1="24.65" y1="41.9" x2="34.41" y2="41.9"/>
		</g>
		<line class="st0" x1="20.8" y1="79.06" x2="27.59" y2="79.06"/>
		<line class="st0" x1="20.8" y1="74.67" x2="27.59" y2="74.67"/>
		<line class="st0" x1="20.8" y1="70.29" x2="27.59" y2="70.29"/>
		<line class="st0" x1="20.8" y1="65.91" x2="27.59" y2="65.91"/>
		<line class="st0" x1="32.44" y1="79.06" x2="39.23" y2="79.06"/>
		<line class="st0" x1="32.44" y1="74.67" x2="39.23" y2="74.67"/>
		<line class="st0" x1="32.44" y1="70.29" x2="39.23" y2="70.29"/>
	</g>
</g>
<g id="Rubriker">
</g>
</svg>
