<?xml version="1.0" encoding="UTF-8" standalone="no"?>
<!DOCTYPE svg PUBLIC "-//W3C//DTD SVG 1.1//EN" "http://www.w3.org/Graphics/SVG/1.1/DTD/svg11.dtd">
<svg width="100%" height="100%" viewBox="0 0 104 104" version="1.1" xmlns="http://www.w3.org/2000/svg" xmlns:xlink="http://www.w3.org/1999/xlink" xml:space="preserve" xmlns:serif="http://www.serif.com/" style="fill-rule:evenodd;clip-rule:evenodd;stroke-linecap:round;stroke-linejoin:round;stroke-miterlimit:10;">
    <g transform="matrix(1,0,0,1,-586.839,-366.651)">
        <g transform="matrix(0.514412,0,0,0.846172,335.366,182.513)">
            <rect x="488.855" y="217.614" width="202.172" height="122.906" style="fill:none;"/>
        </g>
        <g transform="matrix(1,0,0,1,592.839,365.651)">
            <path d="M2.18,27.7L2.18,78.3L46,103.6L76.98,85.71L89.82,78.3L89.82,27.7L46,2.4L2.18,27.7Z" style="fill:none;fill-rule:nonzero;stroke:rgb(87,146,205);stroke-width:2.5px;"/>
        </g>
        <path d="M639.699,386.751C643.684,386.751 646.919,389.986 646.919,393.971C646.919,397.956 643.684,401.191 639.699,401.191C635.714,401.191 632.479,397.956 632.479,393.971C632.479,389.986 635.714,386.751 639.699,386.751ZM634.419,417.431L644.479,417.431M661.859,423.301C664.419,423.011 666.959,419.151 665.509,417.931C664.059,416.711 662.289,416.071 662.399,414.621C662.509,413.171 663.629,412.251 665.909,412.141M625.899,441.781L625.899,445.321C625.899,447.101 627.339,448.541 629.119,448.541C630.899,448.541 632.339,447.101 632.339,445.321L632.339,444.721L632.359,444.721C634.649,445.421 637.129,445.801 639.749,445.801C642.349,445.801 644.879,445.421 647.239,444.731L647.339,444.701L647.339,445.311C647.339,447.091 648.779,448.531 650.559,448.531C652.339,448.531 653.779,447.091 653.779,445.311L653.779,441.771L653.879,441.701C658.999,438.371 662.379,433.321 662.379,427.661C662.379,417.651 651.809,409.531 639.739,409.531C634.989,409.531 630.669,410.791 627.159,412.931L627.169,412.921L620.929,409.181L622.609,416.671L622.659,416.631C621.259,418.171 620.129,419.911 619.339,421.791L611.729,421.791L611.729,434.981L620.009,434.981" style="fill:none;stroke:rgb(87,146,205);stroke-width:2.5px;"/>
    </g>
</svg>
