<?xml version="1.0" encoding="utf-8"?>
<!-- Generator: Adobe Illustrator 25.4.1, SVG Export Plug-In . SVG Version: 6.00 Build 0)  -->
<svg version="1.1" xmlns="http://www.w3.org/2000/svg" xmlns:xlink="http://www.w3.org/1999/xlink" x="0px" y="0px" width="92px"
	 height="106px" viewBox="0 0 92 106" style="enable-background:new 0 0 92 106;" xml:space="preserve">
<style type="text/css">
	.st0{fill:none;stroke:#5792CD;stroke-width:2.5;stroke-linecap:round;stroke-linejoin:round;stroke-miterlimit:10;}
</style>
<g id="ram">
	<path class="st0" d="M2.18,27.7v50.6L46,103.6l30.98-17.89l12.84-7.41V27.7L46,2.4L2.18,27.7z"/>
</g>
<g id="art">
	<g>
		<polyline class="st0" points="18.68,57.71 29.05,57.71 29.05,78.34 18.68,78.34 		"/>
		<path class="st0" d="M29.05,60.34h8.69c2.76,0,5.98,2.71,5.98,2.71c2.28,2.28,5.37,2.3,5.37,2.3h5.96c1.42,0,2.56,1.15,2.56,2.56
			s-1.15,2.56-2.56,2.56H40.86"/>
		<path class="st0" d="M29.05,74.55l15.28,4.95c2.92,0.95,6.1,0.72,8.85-0.63l22.14-10.84c-3.05-4.02-8.68-2.29-9.67-1.7
			s-8.79,3.39-8.79,3.39"/>
		<path class="st0" d="M48.09,41.62c7.16-6.63-3.18-11.79-5.63-12.85c-2.45-1.06-9.81-2.65-11.59-4.84
			c-5.83,16.23,2.12,22.73,5.37,24.12s7.29-0.6,8.28-3.78"/>
		<path class="st0" d="M35.17,32.28c6.29,5.76,13.05,17.09,15.83,25.77"/>
		<path class="st0" d="M53.65,46.23c-0.94-3.59,4.48-5.19,5.9-5.53c1.65-0.39,6.41-0.58,7.77-1.75c1.86,10.77-3.81,13.96-5.99,14.47
			c-2.18,0.51-4.48-1.17-4.76-3.26"/>
		<path class="st0" d="M63.71,43.69c-4.56,2.91-10.02,9.24-12.71,14.36"/>
	</g>
</g>
<g id="Layer_1">
</g>
<g id="Rubriker">
</g>
</svg>
