<?xml version="1.0" encoding="utf-8"?>
<!-- Generator: Adobe Illustrator 25.4.1, SVG Export Plug-In . SVG Version: 6.00 Build 0)  -->
<svg version="1.1" xmlns="http://www.w3.org/2000/svg" xmlns:xlink="http://www.w3.org/1999/xlink" x="0px" y="0px" width="92px"
	 height="106px" viewBox="0 0 92 106" style="enable-background:new 0 0 92 106;" xml:space="preserve">
<style type="text/css">
	.st0{fill:none;stroke:#5792CD;stroke-width:2.5;stroke-linecap:round;stroke-linejoin:round;stroke-miterlimit:10;}
	.st1{fill-rule:evenodd;clip-rule:evenodd;fill:#5792CD;}
</style>
<g id="ram">
	<path class="st0" d="M2.18,28.49v50.6L46,104.39L76.98,86.5l12.84-7.41v-50.6L46,3.19L2.18,28.49z"/>
</g>
<g id="art">
	<g>
		<path id="Stroke-3" class="st0" d="M39.9,56.64v-26.4c0-3.36,2.75-6.1,6.1-6.1c3.36,0,6.1,2.75,6.1,6.1v27.33v1.9
			c0,0.75,0.35,1.45,0.94,1.91c3.06,2.38,4.87,6.29,4.32,10.58c-0.67,5.14-4.87,9.25-10.02,9.84c-6.92,0.78-12.79-4.61-12.79-11.38
			c0-3.68,1.73-6.95,4.42-9.04c0.59-0.46,0.93-1.16,0.93-1.9V56.64z"/>
		<path id="Fill-5" class="st1" d="M51.02,70.41c0,2.77-2.25,5.02-5.02,5.02c-2.77,0-5.02-2.25-5.02-5.02
			c0-2.77,2.25-5.02,5.02-5.02C48.77,65.39,51.02,67.64,51.02,70.41"/>
		<path id="Stroke-7" class="st0" d="M46,37.36v31.38"/>
	</g>
</g>
<g id="Layer_1">
</g>
</svg>
