<?xml version="1.0" encoding="UTF-8" standalone="no"?>
<!DOCTYPE svg PUBLIC "-//W3C//DTD SVG 1.1//EN" "http://www.w3.org/Graphics/SVG/1.1/DTD/svg11.dtd">
<svg width="100%" height="100%" viewBox="0 0 91 104" version="1.1" xmlns="http://www.w3.org/2000/svg" xmlns:xlink="http://www.w3.org/1999/xlink" xml:space="preserve" xmlns:serif="http://www.serif.com/" style="fill-rule:evenodd;clip-rule:evenodd;stroke-linecap:round;stroke-linejoin:round;stroke-miterlimit:10;">
    <g transform="matrix(1,0,0,1,-0.95,-1.15)">
        <path d="M2.2,27.7L2.2,78.3L46,103.6L77,85.7L89.8,78.3L89.8,27.7L46,2.4L2.2,27.7Z" style="fill:none;fill-rule:nonzero;stroke:rgb(87,146,205);stroke-width:2.5px;"/>
        <g transform="matrix(1.51799,0,0,1.51799,-3.56249,-29.9105)">
            <path d="M18.4,60.8L18.4,52L13.9,52L32.6,38.9L51.4,52L46.8,52L46.8,68.2L18.4,68.2" style="fill:none;fill-rule:nonzero;stroke:rgb(87,146,205);stroke-width:1.65px;"/>
        </g>
        <g transform="matrix(1.51799,0,0,1.51799,-3.56249,-29.9105)">
            <path d="M24.5,68.2L24.5,53.5L40.8,53.5L40.8,68.2" style="fill:none;fill-rule:nonzero;stroke:rgb(87,146,205);stroke-width:1.65px;"/>
        </g>
    </g>
</svg>
