<?xml version="1.0" encoding="utf-8"?>
<!-- Generator: Adobe Illustrator 25.4.1, SVG Export Plug-In . SVG Version: 6.00 Build 0)  -->
<svg version="1.1" xmlns="http://www.w3.org/2000/svg" xmlns:xlink="http://www.w3.org/1999/xlink" x="0px" y="0px" width="92px"
	 height="106px" viewBox="0 0 92 106" style="enable-background:new 0 0 92 106;" xml:space="preserve">
<style type="text/css">
	.st0{fill:none;stroke:#5792CD;stroke-width:2.5;stroke-linecap:round;stroke-linejoin:round;stroke-miterlimit:10;}
	.st1{fill:#5792CD;}
	.st2{font-family:'UniversLTPro-65Bold';}
	.st3{font-size:15.336px;}
</style>
<g id="ram">
	<path class="st0" d="M2.18,27.7v50.6L46,103.6l30.98-17.89l12.84-7.41V27.7L46,2.4L2.18,27.7z"/>
</g>
<g id="art">
	<g id="Group-7" transform="translate(21.888580, 30.000000)">
		<polygon id="Stroke-37" class="st0" points="8.89,38.22 39.33,38.22 39.33,7.78 8.89,7.78 		"/>
		<polygon id="Stroke-39" class="st0" points="31.78,3.33 31.78,7.78 31.78,3.33 31.78,0.41 		"/>
		<polygon id="Stroke-40" class="st0" points="24.11,3.33 24.11,7.78 24.11,3.33 24.11,0.41 		"/>
		<polygon id="Stroke-41" class="st0" points="16.44,3.33 16.44,7.78 16.44,3.33 16.44,0.41 		"/>
		<polygon id="Stroke-42" class="st0" points="31.78,42.67 31.78,45.59 31.78,42.67 31.78,38.22 		"/>
		<polygon id="Stroke-43" class="st0" points="24.11,42.67 24.11,45.59 24.11,42.67 24.11,38.22 		"/>
		<polygon id="Stroke-44" class="st0" points="16.44,42.67 16.44,45.59 16.44,42.67 16.44,38.22 		"/>
		<polygon id="Stroke-45" class="st0" points="43.78,30.67 39.33,30.67 43.78,30.67 46.7,30.67 		"/>
		<polygon id="Stroke-46" class="st0" points="43.78,23 39.33,23 43.78,23 46.7,23 		"/>
		<polygon id="Stroke-47" class="st0" points="43.78,15.33 39.33,15.33 43.78,15.33 46.7,15.33 		"/>
		<polygon id="Stroke-48" class="st0" points="4.44,30.67 1.52,30.67 4.44,30.67 8.89,30.67 		"/>
		<polygon id="Stroke-49" class="st0" points="4.44,23 1.52,23 4.44,23 8.89,23 		"/>
		<polygon id="Stroke-50" class="st0" points="4.44,15.33 1.52,15.33 4.44,15.33 8.89,15.33 		"/>
		<text transform="matrix(1 0 0 1 16.0401 29.043)" class="st1 st2 st3">AI</text>
	</g>
</g>
<g id="Layer_1">
</g>
</svg>
