<?xml version="1.0" encoding="utf-8"?>
<!-- Generator: Adobe Illustrator 26.0.1, SVG Export Plug-In . SVG Version: 6.00 Build 0)  -->
<svg version="1.1" id="Layer_1" xmlns="http://www.w3.org/2000/svg" xmlns:xlink="http://www.w3.org/1999/xlink" x="0px" y="0px"
	 width="92px" height="106px" viewBox="0 0 92 106" style="enable-background:new 0 0 92 106;" xml:space="preserve">
<style type="text/css">
	.st0{fill:none;stroke:#5692CE;stroke-width:2.5;stroke-linecap:round;stroke-linejoin:round;}
	.st1{fill:none;}
</style>
<g id="ram">
	<path class="st0" d="M2.2,27.7v50.6L46,103.6l31-17.9l12.8-7.4V27.7L46,2.4L2.2,27.7z"/>
</g>
<g id="art">
	<g id="Group-10">
		<path id="Fill-25" class="st0" d="M35.3,62.6l0.4-0.4c5.7-5.6,14.8-5.6,20.5,0l0.4,0.4"/>
		<path id="Fill-27" class="st0" d="M27,54.2l0.4-0.4c10.3-10.2,26.9-10.2,37.2,0l0.4,0.4"/>
		<path id="Fill-29" class="st0" d="M18.6,45.9l0.4-0.4c14.9-14.9,39.1-14.9,54,0l0.4,0.4"/>
		<path id="Fill-31" class="st0" d="M45.7,71.7c0.7,0,1.2-0.5,1.2-1.2c0-0.7-0.5-1.2-1.2-1.2"/>
		<path id="Fill-31-2" class="st0" d="M45.7,69.3c-0.7,0-1.2,0.5-1.2,1.2c0,0.7,0.5,1.2,1.2,1.2"/>
	</g>
</g>
<g id="Layer_1_00000037675786025543705870000000853660743433893272_">
	<rect x="0.1" y="0.1" class="st1" width="92" height="106"/>
</g>
</svg>
