<?xml version="1.0" encoding="UTF-8" standalone="no"?>
<!DOCTYPE svg PUBLIC "-//W3C//DTD SVG 1.1//EN" "http://www.w3.org/Graphics/SVG/1.1/DTD/svg11.dtd">
<svg width="100%" height="100%" viewBox="0 0 8 6" version="1.1" xmlns="http://www.w3.org/2000/svg" xmlns:xlink="http://www.w3.org/1999/xlink" xml:space="preserve" xmlns:serif="http://www.serif.com/" style="fill-rule:evenodd;clip-rule:evenodd;stroke-linejoin:round;stroke-miterlimit:2;">
    <g transform="matrix(0.24,0,0,0.24,-193.495,-247.163)">
        <g transform="matrix(0.0551894,0,0,0.0551894,770.702,973.359)">
            <path d="M885.349,1166.05L885.349,1139.34C873.204,1133.43 863.304,1123.68 857.271,1111.69L821.12,1111.69L821.12,1110.36C812.869,1121.51 799.609,1128.75 784.669,1128.75C759.673,1128.75 739.38,1108.49 739.38,1083.53C739.38,1058.57 759.673,1038.3 784.669,1038.3C799.906,1038.3 813.396,1045.83 821.605,1057.37L857.271,1057.37C867.374,1037.29 888.327,1023.48 912.512,1023.48C936.698,1023.48 957.651,1037.29 967.754,1057.37L1003.43,1057.37C1011.64,1045.83 1025.13,1038.3 1040.37,1038.3C1065.36,1038.3 1085.66,1058.57 1085.66,1083.53C1085.66,1108.49 1065.36,1128.75 1040.37,1128.75C1026.03,1128.75 1013.24,1122.09 1004.94,1111.69L967.754,1111.69C961.721,1123.68 951.82,1133.43 939.675,1139.34L939.675,1164.18C961.369,1170.49 977.581,1189.74 979.396,1213L1051.41,1213C1107.46,1219.04 1159.94,1262.44 1162.72,1330.77L1163.02,1378.94L1174.63,1378.94L1174.63,1422.11L1051.41,1422.11L1051.41,1378.94L1065,1378.94L1064.94,1349.69C1062.5,1323.64 1044.99,1313.6 1021.78,1309.62L977.419,1309.62C970.772,1332.74 949.443,1349.69 924.189,1349.69L906.212,1349.69C880.958,1349.69 859.629,1332.74 852.982,1309.62L753.177,1309.62C744.547,1313.38 738.038,1317.77 734.278,1322.98L699.405,1360.63C686.475,1371.62 667.452,1367.88 657.392,1360.63C647.61,1352.61 643.6,1343.39 643.736,1333.32L643.736,1189.29C643.6,1179.22 647.61,1170 657.392,1161.98C667.452,1154.73 686.475,1150.99 699.405,1161.98L734.278,1199.63C738.038,1204.84 744.547,1209.23 753.177,1213L851.005,1213C852.666,1191.7 866.394,1173.77 885.349,1166.05Z" style="fill:rgb(37,37,37);"/>
        </g>
    </g>
</svg>
