<?xml version="1.0" encoding="utf-8"?>
<!-- Generator: Adobe Illustrator 25.4.1, SVG Export Plug-In . SVG Version: 6.00 Build 0)  -->
<svg version="1.1" xmlns="http://www.w3.org/2000/svg" xmlns:xlink="http://www.w3.org/1999/xlink" x="0px" y="0px" width="92px"
	 height="106px" viewBox="0 0 92 106" style="enable-background:new 0 0 92 106;" xml:space="preserve">
<style type="text/css">
	.st0{fill:none;stroke:#5792CD;stroke-width:2.5;stroke-linecap:round;stroke-linejoin:round;stroke-miterlimit:10;}
</style>
<g id="ram">
	<path class="st0" d="M2.18,27.7v50.6L46,103.6l30.98-17.89l12.84-7.41V27.7L46,2.4L2.18,27.7z"/>
</g>
<g id="Layer_1">
	<g>
		<path class="st0" d="M46,23.36"/>
	</g>
	<g>
		<g>
			<path class="st0" d="M25.4,46.29c0,0,2.36-1.49,4.72-1.49c2.33,0,4.65,1.49,4.65,1.49s2.79-1.78,5.76-1.78
				c2.64,0,5.48,1.78,5.48,1.78s2.5-1.78,5.2-1.78c2.68,0,5.55,1.78,5.55,1.78s2.8-1.63,5.41-1.63c2.26,0,4.37,1.63,4.37,1.63
				s1.84-1.27,4.02-1.27c2.17,0,4.69,1.27,4.69,1.27C70.11,34.63,58.95,26.55,46,26.55c-12.95,0-24.11,8.08-29.23,19.74"/>
		</g>
		<path class="st0" d="M46,46.29l0,29.66c0,6.98-8.45,7.15-8.45,0"/>
		<line class="st0" x1="46" y1="25.77" x2="46" y2="21.49"/>
	</g>
</g>
<g id="Rubriker">
</g>
</svg>
