<svg width="69" height="78" viewBox="0 0 69 78" fill="none" xmlns="http://www.w3.org/2000/svg">
<path d="M35.26 19.74C40.0372 19.74 43.91 15.8673 43.91 11.09C43.91 6.31274 40.0372 2.44 35.26 2.44C30.4827 2.44 26.61 6.31274 26.61 11.09C26.61 15.8673 30.4827 19.74 35.26 19.74Z" stroke="#5A8FC8" stroke-width="3" stroke-miterlimit="10" stroke-linecap="round" stroke-linejoin="round"/>
<path d="M28.93 39.18H40.99" stroke="#5A8FC8" stroke-width="3" stroke-miterlimit="10" stroke-linecap="round" stroke-linejoin="round"/>
<path d="M61.79 46.2C64.85 45.85 67.89 41.23 66.16 39.77C64.43 38.3 62.31 37.54 62.44 35.81C62.57 34.08 63.92 32.98 66.64 32.84" stroke="#5A8FC8" stroke-width="3" stroke-miterlimit="10" stroke-linecap="round" stroke-linejoin="round"/>
<path d="M18.74 68.33V72.57C18.74 74.7 20.47 76.43 22.6 76.43C24.73 76.43 26.46 74.7 26.46 72.57V71.85H26.48C29.22 72.69 32.19 73.15 35.33 73.15C38.44 73.15 41.47 72.7 44.3 71.87L44.42 71.84V72.58C44.42 74.71 46.15 76.44 48.28 76.44C50.41 76.44 52.14 74.71 52.14 72.58V68.34L52.27 68.26C58.4 64.28 62.44 58.23 62.44 51.45C62.44 39.46 49.79 29.74 35.33 29.74C29.64 29.74 24.47 31.25 20.27 33.81L20.28 33.8L12.81 29.32L14.83 38.29L14.89 38.24C13.21 40.09 11.86 42.16 10.91 44.41H1.79999V60.2H11.72" stroke="#5A8FC8" stroke-width="3" stroke-miterlimit="10" stroke-linecap="round" stroke-linejoin="round"/>
</svg>
