<?xml version="1.0" encoding="utf-8"?>
<!-- Generator: Adobe Illustrator 26.0.1, SVG Export Plug-In . SVG Version: 6.00 Build 0)  -->
<svg version="1.1" xmlns="http://www.w3.org/2000/svg" xmlns:xlink="http://www.w3.org/1999/xlink" x="0px" y="0px" width="92px"
	 height="106px" viewBox="0 0 92 106" style="enable-background:new 0 0 92 106;" xml:space="preserve">
<style type="text/css">
	.st0{fill:none;stroke:#5792CD;stroke-width:2.5;stroke-linecap:round;stroke-linejoin:round;stroke-miterlimit:10;}
</style>
<g id="ram">
	<path class="st0" d="M2.2,27.7v50.6L46,103.6l31-17.9l12.8-7.4V27.7L46,2.4L2.2,27.7z"/>
</g>
<g id="Layer_1">
	<polyline class="st0" points="18.4,60.8 18.4,52 13.9,52 32.6,38.9 51.4,52 46.8,52 46.8,68.2 32.6,68.2 18.4,68.2 	"/>
	<polyline class="st0" points="45.5,38.9 45.5,33 41.8,33 56.9,22.4 72,33 68.3,33 68.3,46 56.9,46 54.1,46 	"/>
	<path class="st0" d="M32.5,79.4c2.2,0,2.2,1.5,4.4,1.5c2.2,0,2.2-1.5,4.4-1.5c2.2,0,2.2,1.5,4.4,1.5c2.2,0,2.2-1.5,4.4-1.5
		c2.2,0,2.2,1.5,4.4,1.5c2.2,0,2.2-1.5,4.4-1.5c2.2,0,2.2,1.5,4.4,1.5c2.2,0,2.2-1.5,4.4-1.5s2.2,1.5,4.4,1.5"/>
	<path class="st0" d="M54.3,76.6V65c0-3.1,2.5-5.6,5.6-5.6"/>
	<path class="st0" d="M63.1,76.6V65c0-3.1,2.5-5.6,5.6-5.6"/>
	<line class="st0" x1="54.3" y1="73.9" x2="63.1" y2="73.9"/>
	<line class="st0" x1="54.3" y1="67.2" x2="63.1" y2="67.2"/>
	<polyline class="st0" points="24.5,68.2 24.5,53.5 40.8,53.5 40.8,68.2 	"/>
	<polyline class="st0" points="60.6,46 60.6,33.8 53.5,33.8 53.5,38.9 	"/>
</g>
<g id="Rubriker">
</g>
</svg>
