<?xml version="1.0" encoding="UTF-8" standalone="no"?>
<!DOCTYPE svg PUBLIC "-//W3C//DTD SVG 1.1//EN" "http://www.w3.org/Graphics/SVG/1.1/DTD/svg11.dtd">
<svg width="100%" height="100%" viewBox="0 0 92 106" version="1.1" xmlns="http://www.w3.org/2000/svg" xmlns:xlink="http://www.w3.org/1999/xlink" xml:space="preserve" xmlns:serif="http://www.serif.com/" style="fill-rule:evenodd;clip-rule:evenodd;stroke-linecap:round;stroke-linejoin:round;stroke-miterlimit:10;">
    <g id="ram">
        <path d="M2.18,27.7L2.18,78.3L46,103.6L76.98,85.71L89.82,78.3L89.82,27.7L46,2.4L2.18,27.7Z" style="fill:none;fill-rule:nonzero;stroke:rgb(87,146,205);stroke-width:2.5px;"/>
    </g>
    <path d="M41.58,51.78L51.64,51.78M69.02,57.65C71.58,57.36 74.12,53.5 72.67,52.28C71.22,51.06 69.45,50.42 69.56,48.97C69.67,47.52 70.79,46.6 73.07,46.49M33.06,76.13L33.06,79.67C33.06,81.45 34.5,82.89 36.28,82.89C38.06,82.89 39.5,81.45 39.5,79.67L39.5,79.07L39.52,79.07C41.81,79.77 44.29,80.15 46.91,80.15C49.51,80.15 52.04,79.77 54.4,79.08L54.5,79.05L54.5,79.66C54.5,81.44 55.94,82.88 57.72,82.88C59.5,82.88 60.94,81.44 60.94,79.66L60.94,76.12L61.04,76.05C66.16,72.72 69.54,67.67 69.54,62.01C69.54,52 58.97,43.88 46.9,43.88C42.15,43.88 37.83,45.14 34.32,47.28L34.33,47.27L28.09,43.53L29.77,51.02L29.82,50.98C28.42,52.52 27.29,54.26 26.5,56.14L18.89,56.14L18.89,69.33L27.17,69.33M46.86,21.1C50.845,21.1 54.08,24.335 54.08,28.32C54.08,32.305 50.845,35.54 46.86,35.54C42.875,35.54 39.64,32.305 39.64,28.32C39.64,24.335 42.875,21.1 46.86,21.1Z" style="fill:none;fill-rule:nonzero;stroke:rgb(87,146,205);stroke-width:2.5px;"/>
</svg>
