<?xml version="1.0" encoding="UTF-8" standalone="no"?>
<!DOCTYPE svg PUBLIC "-//W3C//DTD SVG 1.1//EN" "http://www.w3.org/Graphics/SVG/1.1/DTD/svg11.dtd">
<svg width="100%" height="100%" viewBox="0 0 92 106" version="1.1" xmlns="http://www.w3.org/2000/svg" xmlns:xlink="http://www.w3.org/1999/xlink" xml:space="preserve" xmlns:serif="http://www.serif.com/" style="fill-rule:evenodd;clip-rule:evenodd;stroke-linecap:round;stroke-linejoin:round;stroke-miterlimit:10;">
    <g id="ram">
    </g>
    <g id="Rubriker">
        <path d="M2.2,27.7L2.2,78.3L46,103.6L77,85.7L89.8,78.3L89.8,27.7L46,2.4L2.2,27.7ZM74.1,67.7L57.7,74.8L45.3,71.7L32.1,78.5L17.9,75.7L17.9,35.5L32.1,38.3L45.3,31.6L57.7,34.7L74.1,27.5L74.1,67.7Z" style="fill:none;fill-rule:nonzero;stroke:#5792cd;stroke-width:2.5px;"/>
        <g>
            <g>
                <path d="M25.7,55.2C25.9,55.5 26,55.8 26.2,56.1" style="fill:none;fill-rule:nonzero;stroke:#5792cd;stroke-width:2.5px;stroke-miterlimit:4;"/>
                <path d="M30.1,60.1C33.7,62.6 38.3,63.2 42.4,60.9C49.6,56.8 49.3,44.9 55.8,43.3C58.4,42.7 60.6,43.5 62.2,44.5" style="fill:none;fill-rule:nonzero;stroke:#5792cd;stroke-width:2.5px;stroke-miterlimit:4;stroke-dasharray:1.88,5.65;"/>
                <path d="M64.2,46.5C64.6,47 64.8,47.3 64.8,47.3" style="fill:none;fill-rule:nonzero;stroke:#5792cd;stroke-width:2.5px;stroke-miterlimit:4;"/>
            </g>
        </g>
        <path d="M68.9,48.6L62.9,59.2" style="fill:none;fill-rule:nonzero;stroke:#5792cd;stroke-width:2.5px;"/>
        <path d="M62.8,50.6L69.1,57.3" style="fill:none;fill-rule:nonzero;stroke:#5792cd;stroke-width:2.5px;"/>
        <path d="M32.1,38.3L32.1,50" style="fill:none;fill-rule:nonzero;stroke:#5792cd;stroke-width:2.5px;"/>
        <path d="M32.1,78.5L32.1,68.8" style="fill:none;fill-rule:nonzero;stroke:#5792cd;stroke-width:2.5px;"/>
        <path d="M57.7,34.7L57.7,38.3" style="fill:none;fill-rule:nonzero;stroke:#5792cd;stroke-width:2.5px;"/>
        <path d="M57.7,74.8L57.7,62.3" style="fill:none;fill-rule:nonzero;stroke:#5792cd;stroke-width:2.5px;"/>
    </g>
</svg>
