<svg id="Lager_1" data-name="Lager 1" xmlns="http://www.w3.org/2000/svg" viewBox="0 0 90.1 103.7"><g id="Rubriker"><path d="M911.53,513.14v50.6l43.8,25.3,31-17.9,12.8-7.4v-50.6l-43.8-25.3Zm71.9,40-16.4,7.1-12.4-3.1-13.2,6.8-14.2-2.8v-40.2l14.2,2.8,13.2-6.7,12.4,3.1,16.4-7.2Zm-5.2-19.1-6,10.6m-.1-8.6,6.3,6.7m-37-19v11.7m0,28.5v-9.7m25.6-34.1v3.6m0,36.5v-12.5m-26-1.12-1.54-1m8.86,2-1.84.17m8.27-3.92-1.39,1.37m5-8-.78,1.8m4.44-8.4-1.13,1.59m8-3.45-1.94-.22m-32,12,.58,1m37.9-9.72.68.92" transform="translate(-910.28 -486.59)" fill="none" stroke="#000" stroke-linecap="round" stroke-linejoin="round" stroke-width="2.5"/></g></svg>