<?xml version="1.0" encoding="UTF-8"?>
<svg width="42px" height="42px" viewBox="0 0 42 42" version="1.1" xmlns="http://www.w3.org/2000/svg" xmlns:xlink="http://www.w3.org/1999/xlink">
    <!-- Generator: Sketch 46.1 (44463) - http://www.bohemiancoding.com/sketch -->
    <title>Page 1</title>
    <desc>Created with Sketch.</desc>
    <defs></defs>
    <g id="Symbols" stroke="none" stroke-width="1" fill="none" fill-rule="evenodd">
        <g id="Footer" transform="translate(-1285.000000, -417.000000)">
            <g id="Page-1" transform="translate(1286.000000, 418.000000)">
                <path d="M19.9191282,0 C30.9208376,0 39.8384444,8.91897436 39.8384444,19.9191453 C39.8384444,30.9194872 30.9208376,39.8382906 19.9191282,39.8382906 C8.91758974,39.8382906 -1.70940184e-05,30.9194872 -1.70940184e-05,19.9191453 C-1.70940184e-05,8.91897436 8.91758974,0 19.9191282,0 Z" id="Stroke-1" stroke="#FFFFFF"></path>
                <path d="M13.0723248,13.6944957 C14.1025812,13.6944957 14.9393333,12.8579145 14.9393333,11.8268034 C14.9393333,10.7958632 14.1025812,9.95979487 13.0723248,9.95979487 C12.0412137,9.95979487 11.2046325,10.796547 11.2046325,11.8268034 C11.2046325,12.8579145 12.0412137,13.6944957 13.0723248,13.6944957 L13.0723248,13.6944957 Z M25.7559145,14.5064615 C23.9456581,14.5064615 22.3256581,15.1674872 21.1765983,16.6264615 L21.1765983,14.8956923 L17.4331795,14.8956923 L17.4331795,27.3691966 L21.1765983,27.3691966 L21.1765983,20.6244103 C21.1765983,19.1985983 22.4825812,17.8078291 24.1186496,17.8078291 C25.754547,17.8078291 26.1577949,19.1985983 26.1577949,20.5890256 L26.1577949,27.3676581 L29.8878803,27.3676581 L29.8878803,20.3117607 C29.8878803,15.4098803 27.5666838,14.5064615 25.7559145,14.5064615 L25.7559145,14.5064615 Z M11.2246325,27.3691966 L14.954547,27.3691966 L14.954547,14.9367179 L11.2246325,14.9367179 L11.2246325,27.3691966 Z" id="Fill-3" fill="#FFFFFF"></path>
            </g>
        </g>
    </g>
</svg>