<?xml version="1.0" encoding="UTF-8"?>
<svg width="42px" height="42px" viewBox="0 0 42 42" version="1.1" xmlns="http://www.w3.org/2000/svg" xmlns:xlink="http://www.w3.org/1999/xlink">
    <!-- Generator: Sketch 48.2 (47327) - http://www.bohemiancoding.com/sketch -->
    <title>Group</title>
    <desc>Created with Sketch.</desc>
    <defs>
        <polygon id="path-1" points="0 0 22 0 22 16 0 16"></polygon>
    </defs>
    <g id="Footer" stroke="none" stroke-width="1" fill="none" fill-rule="evenodd" transform="translate(-1405.000000, -338.000000)">
        <g id="Group" transform="translate(1406.000000, 339.000000)">
            <path d="M19.9191453,0 C30.8747009,0 39.8384615,8.96376068 39.8384615,19.9191453 C39.8384615,30.8747009 30.8747009,39.8384615 19.9191453,39.8384615 C8.96376068,39.8384615 0,30.8747009 0,19.9191453 C0,8.96376068 8.96376068,0 19.9191453,0 Z" id="Stroke-1" stroke="#FFFFFF"></path>
            <g id="Page-1" transform="translate(9.000000, 12.000000)">
                <mask id="mask-2" fill="white">
                    <use xlink:href="#path-1"></use>
                </mask>
                <g id="Clip-2"></g>
                <path d="M14.6711978,7.76737017 L8.72957984,10.9511929 L8.72792212,6.04969072 L8.72792212,4.5595446 L11.4074688,6.0059596 L14.6711978,7.76737017 Z M21.7788595,3.45114157 C21.7788595,3.45114157 21.5646814,1.88208216 20.9059015,1.19191961 C20.0687504,0.287047122 19.1311411,0.28145743 18.702785,0.228848565 C15.6220688,0 11.0053047,0 11.0053047,0 L10.9953584,0 C10.9953584,0 6.37594189,0 3.2985412,0.230163786 C2.86852734,0.28145743 1.93224426,0.287047122 1.09376695,1.19257722 C0.43565013,1.88306858 0.22080897,3.45179918 0.22080897,3.45179918 C0.22080897,3.45179918 0,5.29179425 0,7.13343334 L0,7.355377 L0,8.85834652 C0,10.7006432 0.22080897,12.5416247 0.22080897,12.5416247 C0.22080897,12.5416247 0.43565013,14.1096977 1.09376695,14.7995315 C1.93224426,15.7057192 3.03231057,15.6767843 3.52034481,15.7708226 C5.28084876,15.9450895 11,16 11,16 C11,16 15.6220688,15.9917799 18.702785,15.7629313 C19.1311411,15.7096648 20.0687504,15.7057192 20.9059015,14.798545 C21.5646814,14.1087113 21.7788595,12.5412959 21.7788595,12.5412959 C21.7788595,12.5412959 22,10.7006432 22,8.85834652 L22,7.45105937 L22,7.13343334 C22,5.29179425 21.7788595,3.45114157 21.7788595,3.45114157 Z" id="Fill-1" fill="#FFFFFF" mask="url(#mask-2)"></path>
            </g>
        </g>
    </g>
</svg>