<?xml version="1.0" encoding="UTF-8"?>
<svg width="42px" height="42px" viewBox="0 0 42 42" version="1.1" xmlns="http://www.w3.org/2000/svg" xmlns:xlink="http://www.w3.org/1999/xlink">
    <!-- Generator: Sketch 46.1 (44463) - http://www.bohemiancoding.com/sketch -->
    <title>Page 1</title>
    <desc>Created with Sketch.</desc>
    <defs></defs>
    <g id="Symbols" stroke="none" stroke-width="1" fill="none" fill-rule="evenodd">
        <g id="Footer" transform="translate(-1225.000000, -417.000000)">
            <g id="Page-1" transform="translate(1226.000000, 418.000000)">
                <path d="M19.9191282,0 C30.9208376,0 39.8384444,8.91897436 39.8384444,19.9191453 C39.8384444,30.9208547 30.9208376,39.8382906 19.9191282,39.8382906 C8.91758974,39.8382906 -1.70940184e-05,30.9208547 -1.70940184e-05,19.9191453 C-1.70940184e-05,8.91897436 8.91758974,0 19.9191282,0 Z" id="Stroke-1" stroke="#FFFFFF"></path>
                <path d="M22.3444103,13.7131966 L24.9119316,13.7131966 L24.9119316,9.92123077 L21.893641,9.92123077 L21.893641,9.9345641 C18.2372308,10.0641368 17.488,12.1193504 17.4218462,14.2781538 L17.4144957,14.2781538 L17.4144957,16.1718291 L14.9245812,16.1718291 L14.9245812,19.8858462 L17.4144957,19.8858462 L17.4144957,29.8403761 L21.1664615,29.8403761 L21.1664615,19.8858462 L24.2408205,19.8858462 L24.8343248,16.1718291 L21.1678291,16.1718291 L21.1678291,15.0280684 C21.1678291,14.2981538 21.6532991,13.7131966 22.3444103,13.7131966" id="Fill-3" fill="#FFFFFF"></path>
            </g>
        </g>
    </g>
</svg>