<?xml version="1.0" encoding="utf-8"?>
<!-- Generator: Adobe Illustrator 25.4.1, SVG Export Plug-In . SVG Version: 6.00 Build 0)  -->
<svg version="1.1" xmlns="http://www.w3.org/2000/svg" xmlns:xlink="http://www.w3.org/1999/xlink" x="0px" y="0px" width="92px"
	 height="106px" viewBox="0 0 92 106" style="enable-background:new 0 0 92 106;" xml:space="preserve">
<style type="text/css">
	.st0{fill:none;stroke:#5792CD;stroke-width:2.5;stroke-linecap:round;stroke-linejoin:round;stroke-miterlimit:10;}
</style>
<g id="ram">
	<path class="st0" d="M2.18,27.7v50.6L46,103.6l30.98-17.89l12.84-7.41V27.7L46,2.4L2.18,27.7z"/>
</g>
<g id="art">
	<g>
		<g>
			<path class="st0" d="M32.49,53c0-7.78,6.57-14.02,14.47-13.47c6.66,0.46,12.06,5.86,12.52,12.52c0.54,7.89-5.7,14.47-13.47,14.47
				c-3.43,0-6.55-1.28-8.93-3.38"/>
			<line class="st0" x1="46" y1="24.6" x2="46" y2="34.1"/>
			<line class="st0" x1="25.92" y1="32.92" x2="32.63" y2="39.63"/>
			<line class="st0" x1="17.6" y1="53" x2="27.1" y2="53"/>
			<line class="st0" x1="25.92" y1="73.08" x2="32.63" y2="66.37"/>
			<line class="st0" x1="46" y1="81.4" x2="46" y2="71.9"/>
			<line class="st0" x1="66.08" y1="73.08" x2="59.37" y2="66.37"/>
			<line class="st0" x1="74.4" y1="53" x2="64.9" y2="53"/>
			<line class="st0" x1="66.08" y1="32.92" x2="59.37" y2="39.63"/>
		</g>
	</g>
</g>
<g id="Rubriker">
</g>
</svg>
