<svg width="72" height="77" viewBox="0 0 72 77" fill="none" xmlns="http://www.w3.org/2000/svg">
<path d="M12.64 22.08C14.49 10.85 24.25 2.28998 36 2.28998C49.08 2.28998 59.68 12.89 59.68 25.97V31.31" stroke="#5A8FC8" stroke-width="3" stroke-miterlimit="10" stroke-linecap="round" stroke-linejoin="round"/>
<path fill-rule="evenodd" clip-rule="evenodd" d="M61.94 52.9199H55.51V31.2999H59.68H61.94C66.24 31.2999 69.73 34.7899 69.73 39.0899V45.1299C69.73 49.4299 66.24 52.9199 61.94 52.9199Z" stroke="#5A8FC8" stroke-width="3" stroke-miterlimit="10" stroke-linecap="round" stroke-linejoin="round"/>
<path fill-rule="evenodd" clip-rule="evenodd" d="M10.12 52.9199H16.55V31.2999H12.38H10.12C5.82002 31.2999 2.33002 34.7899 2.33002 39.0899V45.1299C2.33002 49.4299 5.82002 52.9199 10.12 52.9199Z" stroke="#5A8FC8" stroke-width="3" stroke-miterlimit="10" stroke-linecap="round" stroke-linejoin="round"/>
<path d="M45.38 69.7199C51.77 69.7199 57.17 65.5399 59.01 59.7599C59.45 58.3899 59.68 56.9299 59.68 55.4099V52.9199" stroke="#5A8FC8" stroke-width="3" stroke-miterlimit="10" stroke-linecap="round" stroke-linejoin="round"/>
<path fill-rule="evenodd" clip-rule="evenodd" d="M41.53 64.77H35.32C33.2 64.77 31.48 66.49 31.48 68.61V70.81C31.48 72.93 33.2 74.65 35.32 74.65H41.53C43.65 74.65 45.37 72.93 45.37 70.81V68.61C45.38 66.49 43.66 64.77 41.53 64.77Z" stroke="#5A8FC8" stroke-width="3" stroke-miterlimit="10" stroke-linecap="round" stroke-linejoin="round"/>
</svg>
