<?xml version="1.0" encoding="UTF-8" standalone="no"?>
<!DOCTYPE svg PUBLIC "-//W3C//DTD SVG 1.1//EN" "http://www.w3.org/Graphics/SVG/1.1/DTD/svg11.dtd">
<svg width="100%" height="100%" viewBox="0 0 86 92" version="1.1" xmlns="http://www.w3.org/2000/svg" xmlns:xlink="http://www.w3.org/1999/xlink" xml:space="preserve" xmlns:serif="http://www.serif.com/" style="fill-rule:evenodd;clip-rule:evenodd;stroke-linecap:round;stroke-linejoin:round;stroke-miterlimit:10;">
    <g transform="matrix(1,0,0,1,-3727.59,-452.183)">
        <g id="support.svg" transform="matrix(1.19262,0,0,1.19262,3770.52,498.099)">
            <g transform="matrix(1,0,0,1,-36,-38.5)">
                <path d="M12.64,22.08C14.49,10.85 24.25,2.29 36,2.29C49.08,2.29 59.68,12.89 59.68,25.97L59.68,31.31" style="fill:none;fill-rule:nonzero;stroke:white;stroke-width:3px;"/>
                <path d="M61.94,52.92L55.51,52.92L55.51,31.3L61.94,31.3C66.24,31.3 69.73,34.79 69.73,39.09L69.73,45.13C69.73,49.43 66.24,52.92 61.94,52.92Z" style="fill:none;stroke:white;stroke-width:3px;"/>
                <path d="M10.12,52.92L16.55,52.92L16.55,31.3L10.12,31.3C5.82,31.3 2.33,34.79 2.33,39.09L2.33,45.13C2.33,49.43 5.82,52.92 10.12,52.92Z" style="fill:none;stroke:white;stroke-width:3px;"/>
                <path d="M45.38,69.72C51.77,69.72 57.17,65.54 59.01,59.76C59.45,58.39 59.68,56.93 59.68,55.41L59.68,52.92" style="fill:none;fill-rule:nonzero;stroke:white;stroke-width:3px;"/>
                <path d="M41.53,64.77L35.32,64.77C33.2,64.77 31.48,66.49 31.48,68.61L31.48,70.81C31.48,72.93 33.2,74.65 35.32,74.65L41.53,74.65C43.65,74.65 45.37,72.93 45.37,70.81L45.37,68.61C45.38,66.49 43.66,64.77 41.53,64.77Z" style="fill:none;stroke:white;stroke-width:3px;"/>
            </g>
        </g>
    </g>
</svg>
