<?xml version="1.0" encoding="utf-8"?>
<!-- Generator: Adobe Illustrator 26.0.1, SVG Export Plug-In . SVG Version: 6.00 Build 0)  -->
<svg version="1.1" id="Layer_1" xmlns="http://www.w3.org/2000/svg" xmlns:xlink="http://www.w3.org/1999/xlink" x="0px" y="0px"
	 width="92px" height="106px" viewBox="0 0 92 106" style="enable-background:new 0 0 92 106;" xml:space="preserve">
<style type="text/css">
	.st0{fill:none;stroke:#5792CD;stroke-width:2.5;stroke-linecap:round;stroke-linejoin:round;}
	.st1{fill:#5792CD;}
</style>
<g id="ram">
	<path class="st0" d="M2.5,28.7v50.6l43.8,25.3l31-17.9l12.8-7.4V28.7L46.4,3.4L2.5,28.7z"/>
</g>
<g id="Layer_1_00000183213983163026844180000000682615972798479767_">
	<path class="st0" d="M60.8,78.5c15.3-8.9,10.6-31.4-14.5-52.9c-25.1,21.5-29.8,44-14.5,52.9C40.8,83.8,51.9,83.8,60.8,78.5z"/>
	<path class="st0" d="M56.2,69.9c-2.3,2.3-5.5,3.7-8.8,3.7"/>
	<path class="st0" d="M59.8,61.1c0-3.3-1.3-6.5-3.7-8.8"/>
	<path class="st0" d="M38.5,52.3c2.3-2.3,5.5-3.7,8.8-3.7"/>
	<path class="st0" d="M34.9,61.1c0,3.3,1.3,6.5,3.7,8.8"/>
	<polygon class="st1" points="34.6,56.2 41.9,54.8 39,51.8 36,48.9 	"/>
	<polygon class="st1" points="42.5,73.9 41,66.6 38.1,69.5 35.1,72.4 	"/>
	<polygon class="st1" points="60.1,66 52.8,67.4 55.7,70.4 58.7,73.3 	"/>
	<polygon class="st1" points="52.2,48.3 53.7,55.7 56.6,52.7 59.6,49.8 	"/>
</g>
</svg>
