<svg id="Lager_1" data-name="Lager 1" xmlns="http://www.w3.org/2000/svg" viewBox="0 0 90.1 103.7"><g id="Layer_1-2" data-name="Layer 1-2"><path d="M911.53,513.14v50.6l43.8,25.3,31-17.9,12.8-7.4v-50.6l-43.7-25.3Zm58.3,49.8c15.3-8.9,10.6-31.4-14.5-52.9-25.1,21.5-29.8,44-14.5,52.9A28.43,28.43,0,0,0,969.83,562.94Zm-5.1-8.1a10.91,10.91,0,0,1-8.25,3.2m12.35-12.45a11,11,0,0,0-3.2-8.45m-17.6-.9a11,11,0,0,1,8.3-3.2m-12.4,12.55a10.72,10.72,0,0,0,3.2,8.35m-3.5-13.3,7.3-1.4-2.9-3-3-2.9Zm7.9,17.7L950,551l-2.9,2.9-3,2.9Zm17.6-7.9-7.3,1.4,2.9,3,3,2.9Zm-7.9-17.7,1.5,7.4,2.9-3,3-2.9Z" transform="translate(-910.28 -486.59)" fill="none" stroke="#000" stroke-linecap="round" stroke-linejoin="round" stroke-width="2.5"/></g></svg>